<svg xmlns="http://www.w3.org/2000/svg" width="200" height="200" viewBox="0 0 200 200"><path d="M25.04,105.33c0,.68.01,1.38.04,2.08s.06,1.4.12,2.12h-.64c-.31-.68-.64-1.38-.97-2.1-.34-.71-.64-1.34-.94-1.9l-8.63-17.99c-.18-.4-.41-.7-.67-.91-.26-.2-.61-.31-1.07-.31h-3.29c-1.01,0-1.5.52-1.5,1.55v25.77h3.88v-19.64c0-.64-.01-1.26-.04-1.88-.02-.61-.06-1.22-.12-1.84h.6c.16.58.4,1.21.71,1.88s.6,1.27.83,1.8l8.95,18.45c.18.4.4.7.65.91s.6.31,1.04.31h3.41c.97,0,1.46-.52,1.46-1.55v-25.77h-3.84v19.01h.01Z" style="stroke:#81c6ae; stroke-width:2px;"/><path d="M45.7,107.58c-.16.5-.3,1.01-.43,1.5-.13.5-.25,1.01-.36,1.5h-1.07c-.11-.5-.23-1-.36-1.49-.13-.49-.26-.98-.4-1.49l-6.17-21.29h-4.12l8.11,26.21c.11.29.29.55.55.77.26.23.58.34.95.34h3.92c.35,0,.65-.11.91-.34.26-.23.44-.48.55-.77l8.16-26.21h-4.12l-6.14,21.26Z" style="stroke:#81c6ae; stroke-width:2px;"/><path d="M64.16,90.16c.37-.4.95-.6,1.74-.6h10.88l.16-3.05c-1.21-.08-2.48-.14-3.82-.18-1.33-.04-2.69-.06-4.06-.06h-4.04c-1.63,0-2.94.43-3.9,1.31s-1.46,2.06-1.49,3.56v17.66c.02,1.48.52,2.66,1.49,3.54.96.89,2.27,1.33,3.9,1.33,1.32,0,2.66-.01,4.04-.02,1.37-.01,2.72-.04,4.06-.06,1.33-.02,2.6-.08,3.82-.16l-.16-3.01h-10.88c-.79,0-1.37-.2-1.74-.61s-.55-1.04-.55-1.92v-7.13h11.64v-3.05h-11.64v-5.66c-.01-.86.18-1.5.55-1.9Z" style="stroke:#81c6ae; stroke-width:2px;"/><path d="M96.12,110.54c-1.18.07-2.62.1-4.33.1s-3.02-.32-4-.98c-.97-.66-1.67-1.76-2.08-3.3-.41-1.55-.61-3.66-.61-6.36s.2-4.81.61-6.36c.41-1.55,1.1-2.65,2.08-3.3.97-.66,2.3-.98,4-.98,1.08,0,2.02.01,2.8.04s1.51.06,2.2.1,1.43.1,2.22.18l.4-2.96c-.77-.22-1.5-.37-2.22-.49-.71-.12-1.49-.2-2.34-.25-.84-.05-1.86-.08-3.05-.08-2.64,0-4.75.46-6.36,1.37-1.6.91-2.75,2.4-3.47,4.45-.71,2.06-1.07,4.84-1.07,8.32s.36,6.25,1.07,8.32c.71,2.06,1.87,3.54,3.47,4.45,1.6.91,3.72,1.37,6.36,1.37,1.82,0,3.35-.07,4.57-.22s2.42-.38,3.59-.73l-.4-2.96c-1.12.13-2.26.24-3.43.31Z" style="stroke:#81c6ae; stroke-width:2px;"/><polygon points="110.87 86.32 102.2 86.32 102.2 89.73 110.87 89.73 110.87 113.64 114.83 113.64 114.83 89.73 123.54 89.73 123.54 86.32 114.83 86.32 110.87 86.32" style="stroke:#81c6ae; stroke-width:2px;"/><path d="M132.05,90.16c.37-.4.95-.6,1.74-.6h10.88l.16-3.05c-1.21-.08-2.48-.14-3.82-.18-1.33-.04-2.69-.06-4.06-.06h-4.04c-1.63,0-2.94.43-3.9,1.31s-1.46,2.06-1.49,3.56v17.66c.02,1.48.52,2.66,1.49,3.54.96.89,2.27,1.33,3.9,1.33,1.32,0,2.66-.01,4.04-.02,1.37-.01,2.72-.04,4.06-.06,1.33-.02,2.6-.08,3.82-.16l-.16-3.01h-10.88c-.79,0-1.37-.2-1.74-.61s-.55-1.04-.55-1.92v-7.13h11.64v-3.05h-11.64v-5.66c0-.86.18-1.5.55-1.9Z" style="stroke:#81c6ae; stroke-width:2px;"/><path d="M164.03,110.54c-1.18.07-2.62.1-4.33.1s-3.02-.32-4-.98c-.97-.66-1.67-1.76-2.08-3.3-.41-1.55-.61-3.66-.61-6.36s.2-4.81.61-6.36c.41-1.55,1.1-2.65,2.08-3.3.97-.66,2.3-.98,4-.98,1.08,0,2.02.01,2.8.04.78.02,1.51.06,2.2.1s1.43.1,2.22.18l.4-2.96c-.77-.22-1.5-.37-2.22-.49-.71-.12-1.49-.2-2.34-.25-.84-.05-1.86-.08-3.05-.08-2.64,0-4.75.46-6.36,1.37-1.6.91-2.75,2.4-3.47,4.45-.71,2.06-1.07,4.84-1.07,8.32s.36,6.25,1.07,8.32c.71,2.06,1.87,3.54,3.47,4.45,1.6.91,3.72,1.37,6.36,1.37,1.82,0,3.35-.07,4.57-.22s2.42-.38,3.59-.73l-.4-2.96c-1.12.13-2.27.24-3.43.31Z" style="stroke:#81c6ae; stroke-width:2px;"/><polygon points="188.5 86.32 188.5 97.41 176.47 97.41 176.47 86.32 172.51 86.32 172.51 113.64 176.47 113.64 176.47 100.7 188.5 100.7 188.5 113.64 192.5 113.64 192.5 86.32 188.5 86.32" style="stroke:#81c6ae; stroke-width:2px;"/><desc>Nvectech на topoptics.com.ua</desc></svg>